<?xml version="1.0" encoding="utf-8"?>
<!-- Generator: Adobe Illustrator 24.0.0, SVG Export Plug-In . SVG Version: 6.00 Build 0)  -->
<svg version="1.1" id="_x2014_ÎÓÈ_x5F_1" xmlns="http://www.w3.org/2000/svg" xmlns:xlink="http://www.w3.org/1999/xlink"
	 x="0px" y="0px" viewBox="0 0 3168.75 1668.75" style="enable-background:new 0 0 3168.75 1668.75;" xml:space="preserve">
<style type="text/css">
	.st0{fill:#E52027;}
	.st1{fill:#E56428;}
	.st2{fill:#253A59;}
	.st3{font-family:'Ridgeway-Regular';}
	.st4{font-size:626.8049px;}
	.st5{fill:#FFFFFF;}
</style>
<g>
	<g>
		<g>
			<path class="st0" d="M2935.13,1013.92c-3.84,112.9-119.93,91.97-105.65,34.01h-97.77c-6.05,44.47,11,86.1,42.49,115.55
				c52.45,49.05,149.11,35.15,210.73-32.7c47.29-52.07,59.9-119.78,42.79-173.68L2935.13,1013.92z"/>
			<g>
				<path class="st1" d="M2500.84,230.04l147.4,52.99c-0.38,1.99,19.22-6.04,31.15-23.68c35-51.74-64.39-35-40.1-88.42
					c19.18-42.2,54.13-1.71,77.94-4.02c11.79-1.14,16.69-49.69-19.31-85.65c-45.61-45.55-125.88-54.35-177.91,9.57
					C2471.59,150.32,2500.84,230.04,2500.84,230.04z"/>
				<path class="st1" d="M2408.7,695.73c60.67,0,137.01,0,137.01,0c13.6,0,21.92,14.93,14.76,26.49l-107.89,164.02
					c-11.83,19.11-7.5,44.29,10.4,57.88c30.5,23.15,68.17,13.36,84.92-13.71c0,0,100.54-157.99,131.2-209.69
					c42.99-72.5,29.2-133.33-76.46-133.33c-37.49,0-56.45-0.25-93.94-0.34c-24.85-0.06-36.75-21.4-23.73-45.09
					c17.11-31.13,70.1-127.5,70.1-127.5c2.54-4.56,14.55-10.65,25.59-2.15l67.2,56.02c6.39,5.26,21.86,16.06,42.28,16.06
					l115.55-0.15c24.33,0.16,44.77-10.33,44.77-38.25c0-29.95-26.19-41.16-44.75-41.13c-38.21,0.04-94.06,0.12-94.06,0.12
					c-6.07,0.01-11.95-2.09-16.63-5.95c0,0-88.49-88.26-125.38-124.66c-31.7-31.27-90.15-29.19-121.36,24
					c0,0-91.49,166.07-125.12,226.03C2270.42,618.41,2316.09,695.73,2408.7,695.73z"/>
			</g>
		</g>
		<path class="st0" d="M2965.12,817.75c-19.95-3.03-39.26-0.09-30.47-13.9c41.56-65.21,232.51-388.53,69.68-388.53h-110.4
			c-14.18,0.01-25.68,8.82-25.68,25.7c0,11.62,11.33,21.59,24.76,21.59l28.19,0.04c91.22,0,53.08,67.56-34.55,188.93
			c-191.7,265.5-304.93,324.34-407.4,324.34c-209.03,0-101.4-127.8-49.76-201.24c23.26-33.09,14.74-57.78-35.63-57.78H1882.5
			c-11.51,0-21.05,9.35-20.82,20.86c0.22,11.1,9.29,20.03,20.44,20.03h195.35c32.41,0,30.79,25.94-25.45,68.24
			c-11.01,8.28-21.69,17.01-31.9,26.25h-105.59c-10.48,0-19.06,8.58-19.06,19.06v1.53c0,10.48,8.58,19.06,19.06,19.06h67.73
			c-23.33,28.66-41.9,61.56-52.91,99.82c-4.95,17.19,8.02,34.33,25.92,34.33h903.69c5.31,0,14.37-2.04,20.89-5.36
			c0.13-0.07,0.26-0.14,0.39-0.21l179.08-106.64c4.67-2.77,4.61-8.15,3.44-13.45C3056.34,871.18,3025.08,826.85,2965.12,817.75z"/>
		<path class="st0" d="M2333.16,245.17h-352.91h-53.89H1761.3c-10.9,0-19.83,8.92-19.83,19.83l0,0c0,10.9,8.92,19.83,19.83,19.83
			h153.86l-14.86,92.16h-104.98c-10.48,0-19.06,8.58-19.06,19.06v1.53c0,10.48,8.58,19.06,19.06,19.06h98.58l-14.86,92.16h-49.93
			c-10.48,0-19.06,8.58-19.06,19.06v1.53c0,10.48,8.58,19.06,19.06,19.06h43.53l-22.92,142.16c-0.45,2.81,1.34,5.12,3.98,5.12h406.8
			c2.64,0,5.18-2.3,5.63-5.12l70.99-440.33C2337.59,247.47,2335.8,245.17,2333.16,245.17z"/>
	</g>
	<path class="st0" d="M2186.67,1047.92c-35.93,81.31-112.22,43.36-100.25,0h-97.77c-4.7,42.96,8.15,84.49,39.05,112.55
		c56.66,51.45,152.55,38.15,214.17-29.7c22.65-24.94,37.48-53.79,44.41-82.85H2186.67z"/>
</g>
<g>
	<path class="st2" d="M1024.16,582.33c-7.91,48.16-23.7,95.66-47.4,142.52c-23.69,46.87-52.54,90.99-86.5,132.34
		c-33.97,41.37-70.91,78.36-110.79,110.99c-39.9,32.64-79.59,57.94-119.08,75.87c17.37,7.7,33.36,19,47.99,33.92
		c14.61,14.93,26.25,36.19,34.95,63.71c27.64,82.31,60.82,148.32,99.53,198.08c38.69,49.74,86.5,76.98,143.37,81.73
		c7.11,0.19,13.03,1.41,17.77,3.66c3.94,2.38,7.5,5.65,10.67,9.77c3.15,4.13,4.33,9.82,3.55,17.08
		c-1.59,10.56-10.66,22.81-27.25,36.7s-37.32,24.44-62.21,31.64c-24.88,7.21-51.75,7.88-80.58,2.04
		c-28.84-5.86-55.89-22.9-81.17-51.17c-18.18-18.59-33.97-42.77-47.4-72.55c-13.44-29.78-24.88-58.76-34.36-86.92
		c-9.48-28.19-16.79-52.84-21.92-73.94c-5.15-21.11-7.7-32.46-7.7-34.05c0-0.78-0.2-1.33-0.59-1.67c-0.41-0.31-0.59-1.25-0.59-2.85
		c-7.11-28.63-17.77-50.84-31.99-66.65c-14.22-15.79-29.82-26.79-46.8-32.97c-17-6.18-34.57-8.68-52.73-7.52
		c-18.18,1.17-34.77,4-49.76,8.49c-28.44,90.07-47.8,162.94-58.06,218.64c-10.28,55.71-14.63,99.21-13.04,130.51
		c1.57,31.28,7.5,53.05,17.78,65.27c10.26,12.23,21.72,20.07,34.36,23.54c12.63,3.47,24.48,4.91,35.55,4.35
		c11.05-0.58,18.55,2.32,22.51,8.66c6.31,9.83,5.33,19.11-2.96,27.83c-8.29,8.72-16.79,15.5-25.48,20.35
		c-6.33,2.8-12.64,5.01-18.96,6.65c-6.33,1.62-12.26,2.57-17.78,2.86c-6.33,0.43-12.26,0.79-17.77,1.09
		c-33.97-3.67-60.43-16.3-79.39-37.89c-18.96-21.61-31.81-49.12-38.51-82.57c-6.72-33.46-8.29-72.05-4.74-115.79
		c3.56-43.76,10.66-89.94,21.33-138.63c10.66-48.67,23.88-98.25,39.69-148.72c15.79-50.47,32.77-99.57,50.95-147.35
		c26.07-69.83,48.77-127.38,68.13-172.62c19.35-45.23,35.73-81.78,49.17-109.68c15-31.35,28.03-55.99,39.1-73.95
		c7.11-11.64,15.4-21.95,24.88-30.9c7.89-7.85,17.57-14.86,29.03-21.05c11.44-6.16,23.88-9.38,37.33-9.62
		c14.22-0.39,25.66,1.73,34.36,6.36c7.11,4.15,11.85,10.54,14.22,19.16c2.37,8.63-1.98,21.92-13.03,39.86l-5.92,7.08
		c-1.59,1.9-3.56,4.45-5.92,7.67c-2.37,3.23-4.74,5.87-7.11,7.9c-2.37,2.83-8.11,10.08-17.18,21.71
		c-9.09,11.65-20.94,31.92-35.55,60.82c-14.63,28.91-32.59,68.95-53.91,120.08c-21.33,51.15-45.82,117.32-73.46,198.53
		c28.44,3.95,63.98-4.74,106.64-26.06c42.66-21.32,92.42-61.21,149.3-119.66c37.91-39.75,68.91-79.55,93.02-119.39
		c24.08-39.82,42.84-76.05,56.28-108.7c15.79-37.82,27.64-74.48,35.54-109.99c6.31-31.24,8.29-55.71,5.93-73.43
		c-2.37-17.7-6.73-30.68-13.04-38.93c-7.1-9.67-16.59-15.74-28.43-18.17c-22.92-8.17-57.08-5.89-102.49,6.89
		c-45.44,12.79-96.18,34.9-152.26,66.33c-56.1,31.45-113.95,71.32-173.59,119.65C420.04,637.6,364.94,693.14,314.4,755.88
		c-45.03,55.38-79,105.02-101.9,148.97c-22.92,43.96-39.9,82.01-50.95,114.17c-12.64,37.23-19.36,70.12-20.14,98.71
		c-2.37,13.1-5.92,24.46-10.66,34.06c-3.96,7.88-10.07,14.01-18.37,18.38c-8.29,4.39-18.77,3.06-31.4-3.97
		c-13.44-6.87-22.72-22.24-27.85-46.13c-5.15-23.88-4.55-53.62,1.78-89.21c6.31-35.59,19.14-76,38.51-121.23
		c19.35-45.23,46.4-92.94,81.17-143.16c26.07-37.44,57.26-76.48,93.61-117.13c36.33-40.63,75.63-79.87,117.9-117.71
		c42.25-37.83,86.5-72.5,132.71-104c46.21-31.49,92.22-56.82,138.04-76.01c45.8-19.16,90.05-30.54,132.71-34.09
		c42.65-3.55,82.15,3.79,118.49,22c26.07,12.32,48.97,29.58,68.72,51.81c16.59,18.9,30.4,43.86,41.47,74.88
		C1029.29,497.21,1031.27,535.93,1024.16,582.33z M404.46,576.01c48.97-42.7,95.98-78.68,141-107.99
		c45.03-29.28,85.31-53.31,120.86-72.07c41.06-22.2,79.39-39.9,114.94-53.15c-65.58,19.08-125.6,42.98-180.11,71.74
		c-54.5,28.78-104.09,60.52-148.71,95.26c-44.64,34.74-84.33,70.9-119.08,108.46c-34.77,37.57-65.17,74.28-91.24,110.16
		c-61.61,84.66-109.81,174.99-144.56,271c22.9-49.48,49.77-98.93,80.57-148.37c26.07-42.98,57.86-88.85,95.39-137.62
		C311.04,664.67,354.69,618.86,404.46,576.01z M437.64,1007.97c2.37-6.77,4.74-13.36,7.11-19.75s4.74-12.96,7.11-19.75
		c0.78-4.1,2.76-10.41,5.93-18.93l7.11-19.16c1.57-3.45,2.56-6.6,2.96-9.46c0.39-2.84,1.37-5.99,2.96-9.47
		c1.57-3.45,3.94-9.45,7.11-17.97c3.15-10.87,7.5-22.78,13.03-35.71c0.78-4.89,2.76-10.4,5.92-16.55c1.57-3.45,2.76-6.46,3.55-8.98
		c0.78-2.52,1.57-5.05,2.37-7.57c1.57-4.25,3.94-9.84,7.11-16.79c0.78-3.3,2.76-8.42,5.92-15.37c3.94-11.02,7.89-21.27,11.85-30.74
		c3.94-9.45,7.89-18.9,11.85-28.37l10.66-26.96l10.66-23.4c6.31-15.45,12.44-29.27,18.37-41.49c5.92-12.2,10.85-22.25,14.81-30.13
		c3.15-6.93,6.31-13.47,9.48-19.62l1.19-2.6c0-0.77,0.39-1.26,1.18-1.41c0.78-0.93,1.19-1.81,1.19-2.6
		c-5.54,8.98-10.66,17.68-15.4,26.1c-4.74,8.44-9.48,17.06-14.22,25.87l-7.11,12.05c-1.59,2.68-2.57,5.05-2.96,7.09
		c-0.41,2.06-1.39,4.03-2.96,5.91c-1.59,1.9-2.78,4.1-3.56,6.62c-0.79,2.52-1.98,4.74-3.55,6.61c-1.59,1.91-2.58,3.87-2.96,5.91
		c-0.41,2.06-1.39,4.42-2.96,7.09c-8.7,16.71-17,33.33-24.88,49.86c-7.91,16.55-15.4,33.41-22.51,50.59
		c-15.02,32.95-28.64,65.41-40.88,97.41c-12.26,32-23.9,63.3-34.95,93.88l-7.11,22.71c-3.17,6.95-5.92,14.18-8.29,21.76l-7.11,22.71
		c-1.59,3.48-2.78,6.87-3.56,10.17c-0.79,3.32-1.98,7.11-3.55,11.36c-1.59,3.47-2.78,6.87-3.55,10.17
		c-0.8,3.32-1.98,7.11-3.55,11.35c-3.17,7.73-5.15,14.44-5.93,20.11c-1.59,5.05-2.78,8.45-3.55,10.17
		c-1.59,5.05-2.37,8.76-2.37,11.12c-3.16,7.73-5.15,14.44-5.92,20.11c-3.96,13.42-7.52,26.55-10.66,39.4
		c-3.17,12.87-5.92,25.44-8.29,37.75c-3.17,12.46-5.93,24.67-8.29,36.56c-2.37,11.92-4.35,23.57-5.92,34.92
		c0,4.74-0.79,10.43-2.37,17.05c0,3.17-0.2,5.96-0.59,8.41c-0.41,2.45-0.59,5.24-0.59,8.41c0,1.57-0.2,2.8-0.59,3.67
		c-0.41,0.85-0.59,2.08-0.59,3.67v8.3c-0.8,1.73-1.19,4.17-1.19,7.34v7.11c-2.37,18.62-2.78,37.66-1.19,57.11
		c0,8.68,0.39,16.9,1.19,24.65c0.78,7.74,1.96,15.02,3.55,21.82c2.37,15.33,5.92,27.67,10.66,37.03c1.57,6.01,3.74,11.12,6.52,15.32
		c2.76,4.2,5.33,8.04,7.7,11.54c3.15,4.13,5.52,6.81,7.11,8.1c0.78,1.42,1.96,2.77,3.55,4.05l1.19,0.95l2.37,1.91
		c0.78,0.62,1.19,1.14,1.19,1.54c0,0.39,0.39,0.91,1.18,1.55c0.78-0.15,1.96,0.39,3.56,1.68l2.37,0.73l2.37,1.91
		c0.78,0.63,1.57,0.88,2.37,0.73l1.19,0.95c-10.28-6.7-18.18-14.65-23.7-23.83c-3.17-4.92-5.74-10.14-7.7-15.68
		c-1.98-5.54-3.76-11.32-5.33-17.33c-3.17-11.23-5.53-23.42-7.11-36.54c0-4.74-0.41-7.83-1.19-9.25v-5.92v-4.74
		c0-3.96-0.41-7.03-1.18-9.25v-10.66c0-1.59,0.18-3.2,0.59-4.86c0.39-1.67,0.59-3.28,0.59-4.85v-10.66c0-3.17,0-6.33,0-9.48
		c0-3.17,0.39-6.8,1.19-10.9c0-3.96,0.39-7.19,1.18-9.71c0-4.74,0.39-8.37,1.19-10.9c0-3.96,0.18-7.35,0.59-10.19
		c0.39-2.85,0.98-6.32,1.78-10.41c1.57-13.75,3.55-27.74,5.93-42.03c2.37-14.27,5.52-28.51,9.48-42.72
		c6.31-28.87,13.22-57.26,20.74-85.2c7.5-27.91,15.59-55.35,24.29-82.33c0.78-4.09,1.57-7.6,2.37-10.53
		c0.78-2.92,1.96-6.11,3.55-9.58c1.57-4.25,2.76-7.83,3.55-10.76c0.78-2.91,1.57-6.41,2.37-10.53
		C430.12,1032.74,434.47,1019.66,437.64,1007.97z M680.54,1187.07c0-2.37-0.8-4.97-2.37-7.83c-7.11-20.73-15.4-38.07-24.88-52.04
		c-3.96-6.34-8.11-11.84-12.44-16.54c-4.35-4.67-8.11-8.3-11.26-10.85c-1.59-1.26-2.78-1.83-3.55-1.68l-2.37-1.91l-1.19-0.96
		c-0.79-0.62-1.59-0.87-2.37-0.73l-2.37-1.91l-1.18,0.23c3.15,0.98,5.52,2.09,7.11,3.35l2.37,1.91l2.37,1.91
		c1.57,1.28,2.37,2.32,2.37,3.1l2.37,1.91c0.78,1.44,2.37,3.09,4.74,5c6.31,7.47,11.05,15.24,14.22,23.3
		c8.68,16.49,15.4,32.56,20.14,48.22c0,1.59,0.18,2.74,0.59,3.44c0.39,0.72,0.59,1.87,0.59,3.44c0.78,1.44,1.19,2.55,1.19,3.32
		c0,0.8,0.39,1.91,1.18,3.33c0.78,2.22,1.96,6.34,3.56,12.34c1.57,3.66,2.56,7.61,2.96,11.87c0.39,4.27,1.37,8.62,2.96,13.05
		c2.37,8.24,4.74,16.07,7.11,23.5c2.37,7.42,4.33,15.34,5.93,23.73c4.74,14.87,9.67,29.31,14.81,43.33c5.13,14,10.46,27.18,16,39.55
		c11.85,26.14,24.09,47.84,36.73,65.14c13.43,18.72,27.25,33.01,41.47,42.89c13.43,9.24,26.85,16.11,40.29,20.61l1.18,0.95
		c1.57-0.3,2.37-0.07,2.37,0.73c1.57-0.31,2.55-0.31,2.96,0.02c0.39,0.31,0.98,0.4,1.78,0.25l7.11,2.17c1.57-0.3,2.76-0.15,3.55,0.5
		l3.56-0.69c0.78,0.63,1.58,0.88,2.37,0.72c1.58-0.3,2.76-0.14,3.56,0.49l3.56-0.69c0.77,0.63,1.96,0.8,3.55,0.49l2.37-0.46
		c-15.01-1.04-27.66-3.71-37.91-8.03c-3.17-1.75-6.13-3.36-8.89-4.79c-2.78-1.44-5.74-3.03-8.89-4.79c-3.17-1.75-5.93-3.59-8.29-5.5
		c-2.37-1.91-5.15-3.74-8.3-5.5c-10.27-9.07-19.55-19.12-27.84-30.13c-8.29-11.03-16-22.57-23.11-34.61
		c-14.22-24.1-26.07-49.85-35.55-77.22c-5.53-12.37-10.48-25.03-14.81-38c-4.35-12.99-8.5-25.8-12.44-38.47
		c-1.59-6-3.37-11.97-5.33-17.92c-1.98-5.93-3.76-11.89-5.33-17.92c-0.8-3.79-1.59-6.99-2.37-9.61c-0.8-2.6-1.59-5.41-2.37-8.43
		c-0.79-1.42-1.39-2.69-1.78-3.8C681.91,1189.77,681.32,1188.51,680.54,1187.07z M759.93,951.25
		c52.91-34.76,95.18-73.78,126.78-117.07c31.59-43.26,55.69-84.29,72.28-123.06c19.73-44.9,33.18-90.17,40.29-135.8
		c-15.81,59.17-37.14,111.9-63.99,158.18c-26.86,46.31-53.32,85.81-79.39,118.52C825.1,889.61,793.11,922.69,759.93,951.25z"/>
	<path class="st2" d="M962.54,889.35c2.37-6.78,4.74-13.75,7.11-20.93c2.37-7.16,4.34-13.28,5.92-18.33
		c2.37-5.98,4.74-11.98,7.11-17.97c1.57-5.05,4.74-11.18,9.48-18.43c4.74-7.23,11.44-10.52,20.14-9.84
		c4.74-0.12,11.06,1.22,18.96,4.02c7.89,2.82,15.2,7.53,21.92,14.11c6.7,6.6,11.25,15.99,13.62,28.16
		c2.37,12.19,0.78,27.51-4.74,45.95c-5.53,16.09-11.26,32.21-17.18,48.37c-5.92,16.16-11.67,31.89-17.18,47.18
		c-16.59,49.05-26.86,86.59-30.81,112.63c-3.96,26.06-2.77,40.83,3.55,44.34l1.19-0.23c3.15,0.98,5.52,2.89,7.11,5.73
		c3.15,5.72,3.15,12.03,0,18.96c-2.37,4.42-6.52,8.78-12.44,13.08c-5.93,4.32-12.44,7.75-19.55,10.31
		c-7.11,2.57-14.42,3.79-21.92,3.67c-7.52-0.11-14.42-1.94-20.74-5.45c-3.17-0.96-6.13-2.95-8.89-5.97
		c-2.78-3.01-4.94-6.34-6.52-9.99c-2.37-3.48-4.35-7.45-5.93-11.88c-2.37-5.85-4.15-11.82-5.33-17.93
		c-1.19-6.08-2.17-11.43-2.96-16.01c-0.78-5.37-0.78-10.51,0-15.4c0-13.42,1.96-29.59,5.92-48.55c3.94-18.93,8.68-38.61,14.22-59.05
		c5.52-20.42,11.65-41.16,18.37-62.22C949.69,926.62,956.21,907.17,962.54,889.35z M970.84,942.25
		c6.31-20.96,12.03-39.07,17.18-54.29c5.13-15.21,9.28-29.83,12.44-43.89c-15.01,35.32-27.66,68.97-37.91,100.98
		c-8.7,26.98-16.4,54.93-23.11,83.88c-6.72,28.96-8.5,52.6-5.33,70.95c3.15-15.61,6.31-32.04,9.48-49.24
		c3.15-14.83,6.91-31.56,11.26-50.18C959.17,981.84,964.5,962.43,970.84,942.25z M1145.02,613.34c7.89,2.43,13.03,6.17,15.4,11.23
		c2.37,5.08,2.76,10.54,1.19,16.36c-0.8,4.11-2.78,8.83-5.92,14.19c-1.59,2.68-3.17,4.96-4.74,6.84
		c-11.07,14.8-20.55,29.87-28.44,45.22c-7.91,15.37-13.83,26.98-17.78,34.85c-1.59,2.68-3.76,6.66-6.52,11.93
		c-2.78,5.28-6.13,10.49-10.07,15.59c-3.96,5.12-8.3,9.51-13.03,13.2c-4.74,3.7-9.89,5.29-15.41,4.77
		c-15.01-4.97-25.68-11.6-31.99-19.85c-2.37-2.69-3.37-7.23-2.96-13.64c0.39-6.39,1.18-12.86,2.37-19.42
		c1.19-6.54,2.56-12.53,4.14-17.98c1.57-5.44,2.76-9.02,3.55-10.76c1.57-6.62,2.96-11.63,4.15-15.03c1.18-3.38,2.55-6.81,4.14-10.29
		c4.74-14.35,11.44-26.31,20.15-35.91c8.68-9.57,17.96-17.12,27.84-22.59c9.87-5.47,19.55-8.73,29.03-9.79
		C1129.61,611.21,1137.91,611.58,1145.02,613.34z M1040.75,742.63c4.74-15.14,10.46-29.08,17.18-41.85
		c6.7-12.75,13.22-24.08,19.55-34.02c7.11-10.86,14.22-20.92,21.33-30.21c-11.07,3.74-20.14,11.43-27.25,23.07
		c-7.11,11.66-13.03,23.47-17.78,35.45C1048.24,710.36,1043.9,726.22,1040.75,742.63z"/>
	<path class="st2" d="M1672.29,234.77c10.25,1.97,16.77,6.81,19.55,14.57c2.76,7.75,2.96,15.03,0.59,21.81
		c-2.37,5.99-5.53,11.35-9.48,16.06c-2.37,2.83-4.35,4.81-5.93,5.89c-10.28,12.27-19.16,24.46-26.66,36.58
		c-7.52,12.13-14.42,23.15-20.74,33.06c-7.11,11.66-13.03,23.47-17.77,35.45c-18.18,38.3-37.14,81.28-56.88,128.95
		c-19.76,47.68-39.1,97.06-58.06,148.14c-18.96,51.08-37.32,102.46-55.1,154.08c-17.77,51.64-34.18,100.66-49.17,147.01
		c-7.91,24.46-14.42,48.23-19.55,71.34c-5.15,23.12-8.89,43.99-11.26,62.62c-2.37,18.62-3.16,33.79-2.37,45.49
		c0.78,11.7,3.15,18.34,7.11,19.94c6.31,1.92,11.44,2.31,15.4,1.15c3.95-1.17,7.5-3.05,10.66-5.63c3.15-2.59,6.52-5.23,10.07-7.88
		c3.56-2.68,7.71-4.46,12.44-5.38c7.89-1.53,12.63,0.3,14.22,5.53c0.78,2.99,0.78,5.77,0,8.3c-3.17,9.3-7.7,16.9-13.62,22.79
		c-5.92,5.89-12.06,10.64-18.37,14.24c-7.91,4.68-16.2,7.89-24.88,9.57c-11.07,2.15-19.96,3.08-26.66,2.81
		c-6.72-0.28-13.24-1.78-19.55-4.49c-12.65-3.87-22.51-10.44-29.62-19.72c-7.11-9.29-12.26-19.95-15.4-31.97
		c-3.17-12.03-4.94-24.92-5.33-38.66c-0.4-13.73,0.19-26.7,1.78-38.86c0.78-8.04,1.78-15.54,2.96-22.5
		c1.18-6.93,2.56-13.33,4.15-19.17c1.57-6.62,3.15-12.47,4.74-17.51c1.58-5.82,3.15-11.46,4.74-16.91
		c1.58-5.44,3.15-11.08,4.74-16.92c-13.44,19.2-27.85,38.59-43.25,58.17c-15.4,19.58-30.81,37.39-46.21,53.42
		c-15.4,16.03-30.03,29.53-43.84,40.51c-13.83,10.99-26.27,17.55-37.32,19.7c-22.13,3.52-40.29-3.43-54.51-20.81
		c-14.22-17.38-19.35-41.45-15.4-72.25c3.15-23.51,9.87-50.5,20.14-80.93c10.26-30.43,22.9-61.92,37.92-94.46
		c15-32.54,31.4-64.55,49.17-96.06c17.77-31.49,35.93-59.51,54.5-84.06c18.55-24.53,36.73-44.26,54.51-59.18
		c17.78-14.89,33.77-22.56,47.99-22.95c21.33-0.19,38.51,4.36,51.55,13.68c13.03,9.31,22.7,20.08,29.03,32.27
		c16.59-45.08,32.77-88.31,48.58-129.71c15.8-41.37,30.4-78.58,43.84-111.61c13.42-33.01,24.68-60.87,33.77-83.58
		c9.07-22.68,15.59-38.38,19.55-47.05c7.11-17.17,15.99-30.95,26.66-41.32c10.66-10.37,21.92-18.07,33.77-23.15
		c11.85-5.06,23.29-8.26,34.36-9.64C1654.91,234.21,1664.38,233.94,1672.29,234.77z M1104.72,1134.24
		c-4.74-17.24-5.53-39.21-2.37-65.89c2.37-22.56,8.89-50.7,19.55-84.37c10.67-33.66,29.03-73.96,55.1-120.91
		c30.81-57.33,58.06-102.32,81.76-134.98c23.7-32.64,46.99-53.16,69.91-61.58c-4.74-2.22-10.27-2.74-16.59-1.52
		c-5.53,1.08-12.44,4.4-20.74,9.96c-8.29,5.57-17.98,14.96-29.03,28.16c-7.11,8.49-17.98,23.45-32.58,44.84
		c-14.63,21.41-30.22,46.16-46.81,74.27c-16.59,28.11-32.58,58.08-47.99,89.9c-15.4,31.84-27.66,62.25-36.73,91.26
		c-9.09,29.02-13.83,55.23-14.22,78.6C1083.58,1105.38,1090.5,1122.79,1104.72,1134.24z M1162.78,1079.11
		c5.52-0.28,15.59-7.96,30.22-23.05c14.61-15.08,30.99-34.06,49.17-56.95c18.16-22.88,36.53-47.78,55.1-74.7
		c18.55-26.9,34.16-52.26,46.8-76.04c6.31-17.02,12.44-34.41,18.37-52.15c5.92-17.74,12.03-35.11,18.37-52.15
		c-1.59-3.63-2.37-7.63-2.37-11.98c0-4.33-1.98-7.71-5.92-10.1c-2.37-1.91-6.13-2.55-11.26-1.96c-5.15,0.61-11.46,4-18.96,10.2
		c-7.52,6.2-16.79,15.91-27.84,29.11c-11.07,13.22-24.11,31.16-39.1,53.81c-15.01,22.68-30.62,49.41-46.8,80.2
		c-16.2,30.81-30.21,59.99-42.06,87.56c-11.85,27.59-20.35,50.96-25.48,70.12C1155.85,1070.2,1156.45,1079.57,1162.78,1079.11z
		 M1413.98,762.5c23.7-64.63,46.6-126.75,68.72-186.35c9.48-24.75,19.14-50.12,29.03-76.14c9.87-26.01,19.55-51.2,29.03-75.55
		c9.48-24.36,18.55-46.85,27.25-67.5c8.69-20.65,16.18-37.9,22.51-51.77c-21.33,33.38-42.27,72.61-62.8,117.66
		c-18.18,39.07-37.53,86.88-58.06,143.4C1449.12,622.78,1430.57,688.18,1413.98,762.5z"/>
	<path class="st2" d="M1776.54,838.95c8.68-0.89,13.62,5.85,14.81,20.23c1.18,14.4-1,30.41-6.52,48.07
		c-6.33,18.61-15.22,37.52-26.66,56.73c-11.46,19.22-25.68,36.98-42.66,53.31c-17,16.34-36.73,30.25-59.25,41.73
		c-22.51,11.48-47.6,18.73-75.24,21.74c-26.06,2.7-48.99-0.73-68.72-10.34c-16.59-7.83-31.4-21.74-44.43-41.72
		s-17.57-51.27-13.62-93.92c2.37-27.3,8.68-55.78,18.96-85.44c8.69-25.39,21.92-53.43,39.7-84.14
		c17.78-30.71,42.45-61.37,74.06-92.01c15-13.97,30.4-26.44,46.21-37.42c13.42-8.92,28.03-16.71,43.84-23.33
		c15.79-6.62,30.4-8.07,43.84-4.38c23.7,5.67,37.92,18.31,42.66,37.92c4.74,19.63,3.55,38.41-3.56,56.38
		c-3.96,9.47-9.29,20.97-15.99,34.5c-6.72,13.57-17,28.39-30.81,44.5c-13.83,16.13-32.59,33.2-56.28,51.23
		c-23.7,18.04-54.12,35.81-91.24,53.28c-9.48,27.13-15.4,51.19-17.78,72.18c-1.59,18.49-0.2,35.4,4.15,50.74
		c4.34,15.36,16.39,24.27,36.14,26.74c18.96,2.64,36.92-0.84,53.91-10.48c16.98-9.61,32.38-22.09,46.21-37.42
		c13.81-15.31,25.66-32.24,35.54-50.75c9.87-18.5,17.18-35.33,21.92-50.47c1.57-3.46,3.35-7.77,5.33-12.89
		c1.96-5.12,4.34-10.32,7.11-15.6c2.76-5.28,5.72-9.59,8.89-12.98C1770.21,841.57,1773.38,839.57,1776.54,838.95z M1480.31,922.6
		c7.11-24.28,16.59-49.03,28.44-74.25c10.26-21.73,23.1-45.17,38.51-70.28c15.4-25.1,34.16-48.89,56.28-71.37
		c30.02-30.31,54.69-50.12,74.06-59.42c19.35-9.28,34.16-12.95,44.44-11.01c-3.17-2.53-6.72-5.01-10.66-7.4
		c-8.7-3.83-20.55-3.12-35.55,2.17c-9.48,3.43-23.11,12.39-40.88,26.91c-17.78,14.53-36.55,33.96-56.28,58.33
		c-19.76,24.39-38.51,53.9-56.28,88.55C1504.61,839.49,1490.58,878.75,1480.31,922.6z M1694.79,741.09
		c4.74-7.24,7.7-14.13,8.89-20.69c1.19-6.54,0.39-11.52-2.37-14.94c-2.78-3.4-7.7-4.43-14.81-3.04
		c-7.11,1.38-15.81,6.24-26.07,14.55c-10.27,8.33-20.35,18.77-30.22,31.35c-9.89,12.58-18.37,24.71-25.47,36.35
		c-7.11,11.66-12.85,21.66-17.18,30c-4.35,8.36-5.74,12.37-4.15,12.06c6.31-1.23,14.81-4.84,25.48-10.88
		c10.66-6.02,21.33-13.42,31.99-22.22c10.67-8.78,20.92-17.88,30.81-27.32C1681.55,756.91,1689.25,748.5,1694.79,741.09z"/>
</g>
<text transform="matrix(0.9397 0 -0.342 0.9397 1045.3768 1595.3337)" class="st2 st3 st4">FOR LIFE</text>
<g>
	<path class="st5" d="M2118.55,565.57c0,7.12-5.77,12.89-12.89,12.89h-29.76c-7.12,0-12.89-5.77-12.89-12.89V380.5
		c0-7.12,5.77-12.89,12.89-12.89h29.76c7.12,0,12.89,5.77,12.89,12.89V565.57z"/>
	<path class="st5" d="M1998.25,500.81c-7.12,0-12.89-5.77-12.89-12.89v-29.76c0-7.12,5.77-12.89,12.89-12.89h185.07
		c7.12,0,12.89,5.77,12.89,12.89v29.76c0,7.12-5.77,12.89-12.89,12.89H1998.25z"/>
</g>
</svg>
