<?xml version="1.0" encoding="utf-8"?>
<!-- Generator: Adobe Illustrator 24.0.0, SVG Export Plug-In . SVG Version: 6.00 Build 0)  -->
<svg version="1.1" id="_x2014_ÎÓÈ_x5F_1" xmlns="http://www.w3.org/2000/svg" xmlns:xlink="http://www.w3.org/1999/xlink"
	 x="0px" y="0px" viewBox="0 0 2743.75 612.5" style="enable-background:new 0 0 2743.75 612.5;" xml:space="preserve">
<style type="text/css">
	.st0{fill:#253A59;}
	.st1{fill:#E52027;}
	.st2{fill:#E56428;}
	.st3{fill:#FFFFFF;}
</style>
<path class="st0" d="M1070.86,193.38c-5.54,17.42-13.97,34.17-25.29,50.25c-11.32,16.09-24.4,30.88-39.23,44.36
	c-14.83,13.49-30.52,25.2-47.07,35.13c-16.55,9.93-32.64,17.16-48.24,21.67c6.02,3.79,11.34,8.85,15.95,15.17
	c4.6,6.33,7.77,14.83,9.5,25.5c5.79,32,14.5,58.27,26.16,78.8c11.65,20.53,27.89,33.22,48.71,38.06c2.62,0.46,4.75,1.23,6.39,2.32
	c1.33,1.1,2.47,2.5,3.42,4.2c0.94,1.7,1.07,3.87,0.39,6.52c-1.16,3.83-5.19,7.88-12.09,12.13s-15.16,7.03-24.77,8.36
	c-9.61,1.32-19.61,0.12-29.97-3.61c-10.37-3.73-19.47-11.52-27.31-23.36c-5.73-7.88-10.27-17.69-13.63-29.46
	c-3.37-11.77-6.04-23.12-8.03-34.08s-3.36-20.49-4.12-28.59s-1.1-12.45-1.01-13.04c0.04-0.29,0-0.51-0.13-0.65s-0.15-0.5-0.07-1.09
	c-1.08-10.99-3.83-19.81-8.25-26.43c-4.41-6.62-9.6-11.54-15.56-14.75c-5.96-3.21-12.34-5.09-19.13-5.65
	c-6.8-0.55-13.1-0.4-18.9,0.45c-15.42,31.84-26.55,57.8-33.36,77.88c-6.83,20.09-10.8,35.98-11.9,47.66
	c-1.11,11.68-0.09,20.07,3.05,25.15c3.14,5.09,6.96,8.61,11.46,10.58c4.49,1.97,8.81,3.14,12.94,3.54c4.13,0.38,6.75,1.86,7.87,4.43
	c1.81,3.98,0.94,7.37-2.61,10.15c-3.55,2.78-7.06,4.83-10.54,6.16c-2.5,0.7-4.96,1.17-7.39,1.44c-2.43,0.26-4.68,0.29-6.74,0.1
	c-2.37-0.18-4.58-0.37-6.65-0.56c-12.39-3.2-21.51-9.32-27.37-18.34c-5.86-9.03-9.13-19.93-9.8-32.69
	c-0.68-12.77,0.83-27.15,4.52-43.17c3.69-16.02,8.83-32.76,15.42-50.22c6.59-17.46,14.17-35.12,22.77-52.96
	c8.59-17.85,17.54-35.13,26.87-51.85c13.44-24.47,24.98-44.56,34.6-60.28c9.62-15.71,17.67-28.37,24.17-37.98
	c7.26-10.81,13.42-19.23,18.5-25.29c3.27-3.93,6.9-7.3,10.9-10.11c3.35-2.48,7.32-4.55,11.9-6.23c4.57-1.66,9.36-2.18,14.35-1.54
	c5.29,0.62,9.42,2.03,12.39,4.22c2.41,1.92,3.82,4.55,4.23,7.87c0.41,3.33-1.92,8.02-6.99,14.07l-2.58,2.3
	c-0.69,0.62-1.56,1.46-2.61,2.52c-1.05,1.07-2.07,1.92-3.06,2.54c-1.03,0.92-3.55,3.29-7.54,7.11c-4,3.83-9.49,10.69-16.47,20.62
	c-6.99,9.92-15.81,23.79-26.49,41.58c-10.68,17.8-23.34,41-37.98,69.6c10.32,3.01,23.97,1.71,40.93-3.88
	c16.96-5.59,37.57-17.68,61.82-36.26c16.2-12.68,29.85-25.75,40.94-39.21c11.08-13.45,20-25.86,26.75-37.23
	c7.9-13.16,14.28-26.11,19.13-38.84c4.03-11.24,6.09-20.2,6.18-26.89c0.08-6.69-0.83-11.73-2.72-15.14
	c-2.11-3.97-5.3-6.73-9.55-8.28c-8.05-4.27-20.84-5.27-38.36-3c-17.53,2.28-37.54,7.72-60.02,16.33
	c-22.49,8.62-46.1,20.26-70.82,34.94c-24.73,14.68-48.16,32.28-70.29,52.79c-19.69,18.08-34.97,34.64-45.84,49.69
	c-10.88,15.05-19.23,28.23-25.07,39.55c-6.7,13.11-10.98,24.94-12.81,35.49c-1.59,4.73-3.52,8.74-5.8,12.05
	c-1.9,2.71-4.49,4.65-7.8,5.82c-3.31,1.18-7.12,0.12-11.42-3.17c-4.61-3.27-7.21-9.47-7.82-18.61c-0.61-9.13,1.22-20.12,5.49-32.97
	s11.21-27.13,20.84-42.84c9.62-15.72,22.23-31.93,37.84-48.66c11.69-12.46,25.37-25.24,41.04-38.34
	c15.66-13.09,32.36-25.5,50.07-37.24c17.71-11.73,35.99-22.18,54.82-31.35c18.83-9.17,37.26-16.06,55.28-20.69
	c18.01-4.62,35.03-6.44,51.03-5.44s30.24,5.85,42.72,14.57c8.99,5.98,16.55,13.62,22.66,22.92c5.12,7.9,8.89,17.9,11.31,30
	C1077.37,162.11,1076.01,176.56,1070.86,193.38z M841.53,157.46c20.46-13.17,39.83-23.96,58.11-32.38
	c18.27-8.41,34.51-15.13,48.7-20.16c16.42-6,31.58-10.49,45.48-13.47c-25.34,3.52-48.88,9.12-70.64,16.83s-41.85,16.79-60.27,27.25
	c-18.43,10.46-35.09,21.71-50.01,33.74c-14.92,12.04-28.18,24-39.78,35.88c-27.42,28.04-50.18,58.9-68.26,92.6
	c11.17-17.1,23.8-33.97,37.9-50.62c11.99-14.52,26.26-29.8,42.81-45.84C802.1,185.25,820.76,170.64,841.53,157.46z M830.42,319.34
	c1.24-2.38,2.48-4.7,3.7-6.93c1.22-2.24,2.46-4.55,3.7-6.93c0.51-1.48,1.59-3.71,3.22-6.69l3.67-6.71c0.77-1.19,1.3-2.31,1.61-3.34
	c0.3-1.03,0.83-2.15,1.61-3.35c0.77-1.19,1.97-3.29,3.61-6.28c1.76-3.86,4.01-8.04,6.77-12.53c0.55-1.77,1.59-3.71,3.09-5.81
	c0.77-1.19,1.37-2.24,1.8-3.14c0.42-0.89,0.86-1.79,1.29-2.68c0.81-1.49,1.99-3.43,3.54-5.84c0.47-1.18,1.48-2.97,3.03-5.38
	c2.06-3.87,4.08-7.45,6.06-10.75c1.97-3.29,3.95-6.58,5.93-9.87l5.41-9.41l5.22-8.09c3.18-5.38,6.2-10.17,9.05-14.38
	c2.86-4.2,5.23-7.66,7.12-10.36c1.54-2.4,3.07-4.65,4.58-6.76l0.58-0.9c0.04-0.29,0.21-0.45,0.52-0.46c0.34-0.3,0.54-0.61,0.58-0.9
	c-2.54,3.03-4.91,5.97-7.12,8.84s-4.44,5.81-6.67,8.82l-3.29,4.08c-0.74,0.91-1.23,1.73-1.48,2.47c-0.26,0.74-0.73,1.42-1.42,2.03
	c-0.69,0.62-1.25,1.37-1.68,2.26s-0.99,1.65-1.68,2.26c-0.69,0.62-1.16,1.3-1.42,2.03c-0.26,0.74-0.75,1.56-1.48,2.47
	c-4.13,5.72-8.1,11.43-11.92,17.13c-3.83,5.71-7.52,11.55-11.08,17.53c-7.35,11.4-14.16,22.69-20.43,33.89
	c-6.28,11.2-12.29,22.16-18.04,32.9l-3.87,8.03c-1.55,2.4-2.96,4.94-4.25,7.62l-3.86,8.03c-0.78,1.2-1.4,2.4-1.87,3.58
	c-0.47,1.19-1.12,2.53-1.93,4.02c-0.78,1.2-1.4,2.4-1.87,3.58c-0.48,1.19-1.12,2.53-1.93,4.02c-1.59,2.69-2.69,5.07-3.29,7.13
	c-0.86,1.79-1.49,2.98-1.87,3.58c-0.86,1.78-1.35,3.12-1.48,3.99c-1.59,2.69-2.69,5.07-3.28,7.13c-2.2,4.76-4.22,9.43-6.09,14.02
	c-1.87,4.6-3.57,9.11-5.12,13.54c-1.85,4.45-3.53,8.82-5.06,13.1c-1.52,4.29-2.89,8.5-4.09,12.62c-0.26,1.75-0.86,3.82-1.8,6.19
	c-0.17,1.17-0.4,2.2-0.68,3.08c-0.28,0.89-0.5,1.91-0.68,3.08c-0.09,0.58-0.23,1.03-0.42,1.33c-0.2,0.29-0.33,0.74-0.42,1.33
	l-0.45,3.07c-0.39,0.6-0.67,1.48-0.84,2.65l-0.39,2.63c-1.89,6.77-3.07,13.81-3.53,21.1c-0.47,3.22-0.77,6.28-0.9,9.2
	c-0.13,2.91-0.09,5.67,0.13,8.28c0.05,5.81,0.7,10.58,1.95,14.3c0.26,2.31,0.78,4.33,1.59,6.03c0.79,1.71,1.54,3.27,2.23,4.69
	c0.94,1.7,1.68,2.82,2.2,3.39c0.21,0.57,0.58,1.13,1.1,1.69l0.39,0.42l0.77,0.84c0.25,0.27,0.38,0.49,0.36,0.64
	c-0.02,0.14,0.1,0.36,0.35,0.64c0.3-0.01,0.71,0.25,1.23,0.81l0.84,0.4l0.78,0.83c0.25,0.27,0.54,0.41,0.84,0.4l0.39,0.42
	c-3.45-3.04-5.94-6.41-7.49-10.12c-0.91-1.99-1.58-4.07-2-6.23c-0.43-2.16-0.78-4.4-1.04-6.71c-0.56-4.34-0.78-8.98-0.65-13.93
	c0.26-1.76,0.27-2.92,0.06-3.49l0.32-2.19l0.26-1.76c0.21-1.47,0.23-2.63,0.06-3.49l0.58-3.95c0.09-0.59,0.24-1.18,0.48-1.77
	c0.23-0.6,0.4-1.18,0.48-1.77l0.58-3.95c0.17-1.17,0.34-2.35,0.51-3.51c0.17-1.17,0.51-2.5,1.03-3.97c0.21-1.47,0.53-2.64,0.96-3.53
	c0.26-1.76,0.6-3.08,1.03-3.97c0.21-1.47,0.47-2.71,0.77-3.74c0.3-1.04,0.71-2.29,1.22-3.76c1.33-5.01,2.82-10.09,4.47-15.26
	c1.65-5.16,3.59-10.27,5.83-15.32c3.9-10.36,8-20.5,12.3-30.45c4.29-9.94,8.78-19.67,13.46-29.2c0.51-1.47,1-2.73,1.45-3.77
	s1.06-2.16,1.84-3.36c0.81-1.49,1.45-2.75,1.9-3.8c0.45-1.04,0.93-2.29,1.45-3.78C826.29,328.12,828.61,323.5,830.42,319.34z
	 M910.74,398.88c0.13-0.88-0.03-1.89-0.45-3.03c-1.51-8.07-3.65-14.94-6.4-20.63c-1.12-2.56-2.36-4.83-3.71-6.8
	c-1.36-1.97-2.56-3.51-3.58-4.63c-0.52-0.55-0.93-0.83-1.23-0.81l-0.78-0.84l-0.39-0.42c-0.26-0.27-0.54-0.41-0.84-0.4l-0.78-0.83
	l-0.45,0.02c1.11,0.53,1.93,1.07,2.45,1.63l0.78,0.84l0.77,0.84c0.51,0.56,0.75,0.99,0.71,1.28l0.78,0.84
	c0.21,0.58,0.71,1.27,1.48,2.11c1.94,3.11,3.27,6.25,4.01,9.41c2.32,6.58,3.94,12.9,4.85,18.96c-0.09,0.59-0.08,1.03,0.03,1.31
	c0.11,0.29,0.12,0.72,0.03,1.31c0.21,0.58,0.3,1.01,0.26,1.29c-0.04,0.3,0.04,0.73,0.26,1.3c0.17,0.86,0.38,2.46,0.65,4.77
	c0.38,1.44,0.53,2.96,0.45,4.56c-0.09,1.61,0.04,3.27,0.39,5c0.43,3.18,0.89,6.21,1.36,9.1c0.48,2.88,0.78,5.92,0.91,9.12
	c0.95,5.77,1.99,11.39,3.14,16.86c1.14,5.47,2.4,10.64,3.79,15.52c2.98,10.33,6.33,19.04,10.08,26.13
	c3.96,7.66,8.31,13.71,13.05,18.14c4.48,4.15,9.08,7.42,13.81,9.82l0.39,0.42c0.6-0.03,0.88,0.1,0.84,0.4
	c0.6-0.03,0.96,0.02,1.1,0.17c0.13,0.14,0.34,0.2,0.65,0.19l2.52,1.19c0.6-0.03,1.03,0.09,1.29,0.38l1.36-0.06
	c0.25,0.27,0.54,0.41,0.84,0.4c0.6-0.03,1.03,0.1,1.29,0.38l1.36-0.06c0.25,0.27,0.68,0.4,1.29,0.38l0.9-0.04
	c-5.51-1.2-10.05-2.87-13.62-5.03c-1.08-0.82-2.09-1.58-3.03-2.26c-0.95-0.68-1.96-1.43-3.03-2.26c-1.08-0.82-2-1.65-2.78-2.49
	s-1.71-1.66-2.78-2.49c-3.32-3.92-6.21-8.14-8.69-12.68s-4.71-9.23-6.69-14.08c-3.96-9.7-6.96-19.89-8.99-30.54
	c-1.38-4.88-2.53-9.84-3.43-14.88c-0.91-5.05-1.75-10.02-2.53-14.93c-0.27-2.31-0.6-4.62-1-6.93c-0.41-2.3-0.75-4.61-1.01-6.93
	c-0.09-1.45-0.21-2.68-0.36-3.69c-0.15-1.01-0.3-2.09-0.42-3.25c-0.22-0.57-0.37-1.07-0.45-1.51
	C911.1,399.95,910.95,399.46,910.74,398.88z M952.94,315.78c21.49-10.01,39.27-22.19,53.33-36.52
	c14.05-14.32,25.21-28.22,33.46-41.69c9.75-15.57,17.18-31.62,22.29-48.15c-9.07,21.07-19.83,39.46-32.28,55.15
	c-12.46,15.71-24.41,28.91-35.84,39.62C980.43,296.47,966.78,307,952.94,315.78z"/>
<path class="st0" d="M1011.13,353.86c1.25-2.38,2.5-4.84,3.77-7.37s2.33-4.69,3.19-6.47c1.2-2.09,2.41-4.18,3.61-6.28
	c0.86-1.78,2.36-3.89,4.51-6.32c2.15-2.42,4.81-3.28,8-2.56c1.76,0.21,4.03,1.05,6.81,2.52c2.77,1.47,5.23,3.61,7.36,6.42
	s3.3,6.54,3.52,11.17c0.22,4.64-1.2,10.24-4.25,16.77c-2.92,5.66-5.92,11.33-8.99,16.99c-3.07,5.67-6.05,11.19-8.92,16.55
	c-8.81,17.28-14.65,30.64-17.52,40.07c-2.88,9.44-3.24,14.98-1.09,16.62l0.45-0.02c1.11,0.53,1.89,1.37,2.32,2.51
	c0.86,2.29,0.52,4.63-1.03,7.03c-1.12,1.51-2.89,2.9-5.32,4.17c-2.43,1.28-5.03,2.2-7.8,2.76c-2.78,0.57-5.55,0.62-8.32,0.17
	c-2.78-0.45-5.24-1.5-7.39-3.14c-1.12-0.53-2.11-1.43-2.97-2.7c-0.87-1.27-1.49-2.62-1.87-4.06c-0.69-1.42-1.21-3-1.55-4.72
	c-0.56-2.3-0.9-4.61-1-6.93c-0.11-2.32-0.18-4.35-0.23-6.09c0-2.03,0.28-3.94,0.83-5.71c0.73-4.97,2.33-10.86,4.83-17.67
	c2.49-6.8,5.31-13.84,8.47-21.11c3.15-7.27,6.55-14.62,10.18-22.06C1004.34,366.97,1007.81,360.12,1011.13,353.86z M1011.33,373.91
	c3.47-7.43,6.58-13.83,9.31-19.19c2.72-5.36,5.05-10.55,6.99-15.59c-7.48,12.28-13.99,24.06-19.52,35.37
	c-4.69,9.53-9.06,19.47-13.11,29.83c-4.06,10.37-6,19.03-5.82,26c2.01-5.62,4.08-11.53,6.18-17.73c1.97-5.33,4.27-11.32,6.89-17.99
	C1004.86,387.95,1007.89,381.05,1011.33,373.91z M1093.71,261.45c2.79,1.33,4.49,2.99,5.1,4.99c0.6,2.01,0.45,4.05-0.45,6.13
	c-0.52,1.48-1.51,3.12-2.96,4.94c-0.74,0.91-1.44,1.67-2.13,2.28c-4.91,4.88-9.23,9.96-12.99,15.22c-3.76,5.27-6.59,9.25-8.48,11.95
	c-0.74,0.91-1.75,2.26-3.06,4.07c-1.32,1.81-2.84,3.55-4.58,5.23c-1.75,1.68-3.59,3.08-5.54,4.18c-1.96,1.11-3.95,1.42-5.97,0.93
	c-5.3-2.66-8.89-5.69-10.78-9.09c-0.73-1.12-0.86-2.86-0.36-5.22c0.49-2.35,1.14-4.7,1.93-7.07c0.79-2.36,1.63-4.51,2.51-6.44
	c0.88-1.93,1.51-3.19,1.9-3.8c0.94-2.37,1.73-4.15,2.35-5.34s1.31-2.39,2.09-3.59c2.53-5.06,5.67-9.13,9.41-12.22
	c3.74-3.08,7.58-5.37,11.54-6.86c3.95-1.49,7.72-2.18,11.29-2.06C1088.11,259.83,1091.17,260.41,1093.71,261.45z M1048.06,303.71
	c2.58-5.35,5.45-10.21,8.63-14.58c3.17-4.36,6.2-8.21,9.09-11.55c3.22-3.64,6.4-6.98,9.54-10.04c-4.31,0.79-8.08,3.15-11.35,7.07
	c-3.27,3.94-6.1,7.99-8.51,12.17C1052.59,292.16,1050.11,297.8,1048.06,303.71z"/>
<path class="st0" d="M1309.63,149.72c3.69,1.28,5.85,3.43,6.46,6.46c0.6,3.02,0.28,5.73-0.96,8.11c-1.2,2.09-2.67,3.91-4.38,5.44
	c-1.03,0.92-1.87,1.55-2.52,1.86c-4.47,3.99-8.43,8.03-11.86,12.11c-3.44,4.09-6.6,7.8-9.48,11.13c-3.27,3.94-6.1,7.99-8.51,12.17
	c-8.81,13.21-18.17,28.11-28.07,44.71c-9.91,16.6-19.75,33.85-29.54,51.76s-19.38,35.95-28.77,54.12
	c-9.38,18.18-18.12,35.45-26.19,51.82c-4.26,8.64-7.96,17.09-11.11,25.38c-3.16,8.29-5.68,15.82-7.57,22.6
	c-1.89,6.77-3,12.35-3.34,16.73c-0.35,4.38,0.17,6.97,1.55,7.78c2.24,1.05,4.11,1.48,5.65,1.26c1.53-0.22,2.94-0.72,4.26-1.51
	c1.31-0.79,2.7-1.59,4.16-2.38c1.46-0.8,3.1-1.23,4.9-1.32c3.01-0.14,4.66,0.8,4.97,2.82c0.13,1.15-0.02,2.18-0.45,3.07
	c-1.68,3.27-3.77,5.85-6.28,7.71c-2.52,1.86-5.04,3.29-7.58,4.28c-3.18,1.31-6.43,2.05-9.74,2.2c-4.22,0.2-7.56,0.06-10.03-0.4
	c-2.48-0.47-4.81-1.38-7-2.72c-4.48-2.12-7.78-5.09-9.91-8.91c-2.13-3.83-3.46-8.06-3.98-12.68c-0.52-4.63-0.48-9.5,0.12-14.62
	c0.59-5.11,1.52-9.88,2.76-14.3c0.72-2.94,1.5-5.66,2.32-8.18c0.81-2.5,1.67-4.8,2.58-6.88c0.94-2.37,1.84-4.45,2.7-6.23
	c0.9-2.07,1.79-4.08,2.67-6.01s1.77-3.93,2.67-6.02c-6.02,6.39-12.41,12.79-19.18,19.22c-6.77,6.42-13.44,12.19-20.02,17.29
	c-6.58,5.11-12.73,9.32-18.44,12.64c-5.72,3.32-10.69,5.08-14.9,5.28c-8.39,0.11-14.75-3.45-19.07-10.66
	c-4.33-7.21-4.92-16.41-1.79-27.61c2.44-8.54,6.39-18.18,11.85-28.9c5.45-10.72,11.84-21.71,19.17-32.95
	c7.32-11.25,15.13-22.22,23.43-32.93c8.29-10.71,16.54-20.11,24.75-28.2c8.2-8.08,16.01-14.41,23.41-18.98
	c7.39-4.56,13.74-6.53,19.03-5.91c7.92,1.09,14.04,3.7,18.36,7.86c4.33,4.16,7.32,8.67,9.01,13.53
	c8.59-15.81,16.93-30.95,25.03-45.44c8.1-14.48,15.52-27.47,22.3-38.99c6.76-11.51,12.44-21.22,17.04-29.15
	c4.59-7.91,7.86-13.38,9.8-16.38c3.56-5.98,7.6-10.61,12.12-13.87c4.51-3.26,9.1-5.51,13.77-6.75c4.67-1.23,9.08-1.8,13.26-1.71
	C1303.22,148.57,1306.75,148.98,1309.63,149.72z M1050.55,452.32c-0.82-6.65,0.07-14.83,2.69-24.55c2.1-8.23,6.04-18.31,11.82-30.21
	c5.78-11.9,14.77-25.84,26.97-41.82c14.52-19.58,27.06-34.78,37.61-45.59c10.55-10.81,20.29-17.16,29.24-19.03
	c-1.64-1.08-3.66-1.57-6.07-1.46c-2.11,0.1-4.85,0.96-8.22,2.57c-3.38,1.62-7.47,4.57-12.28,8.86c-3.1,2.76-7.93,7.72-14.51,14.85
	c-6.58,7.14-13.7,15.47-21.37,24.99s-15.22,19.76-22.66,30.72c-7.43,10.97-13.62,21.57-18.56,31.83
	c-4.94,10.26-8.12,19.72-9.53,28.36C1044.28,440.47,1045.9,447.3,1050.55,452.32z M1075.05,435.03c2.06,0.2,6.21-2.1,12.45-6.91
	c6.23-4.8,13.33-10.94,21.31-18.44c7.97-7.5,16.13-15.73,24.47-24.7c8.33-8.96,15.49-17.52,21.47-25.65
	c3.26-5.97,6.48-12.08,9.63-18.33c3.16-6.25,6.36-12.36,9.63-18.33c-0.39-1.43-0.47-2.96-0.23-4.57c0.23-1.61-0.32-2.96-1.65-4.07
	c-0.77-0.84-2.13-1.28-4.07-1.34c-1.94-0.05-4.46,0.86-7.58,2.75s-7.09,4.99-11.9,9.28c-4.82,4.3-10.62,10.24-17.41,17.82
	c-6.79,7.59-14.03,16.65-21.69,27.19c-7.67,10.54-14.45,20.6-20.33,30.17c-5.89,9.58-10.3,17.78-13.24,24.61
	C1072.97,431.35,1072.68,434.86,1075.05,435.03z M1185.31,331.3c12.28-22.67,24.14-44.45,35.57-65.34
	c4.85-8.66,9.81-17.54,14.88-26.65c5.07-9.1,10.02-17.92,14.85-26.43s9.41-16.36,13.76-23.54c4.34-7.18,8.05-13.17,11.15-17.97
	c-9.71,11.21-19.6,24.62-29.65,40.2c-8.86,13.5-18.62,30.17-29.29,50C1205.9,281.42,1195.48,304.66,1185.31,331.3z"/>
<path class="st0" d="M1315.53,379.28c3.27,0.14,4.73,2.91,4.39,8.3c-0.34,5.4-2.02,11.22-5.02,17.46
	c-3.36,6.56-7.68,13.08-12.95,19.58c-5.29,6.5-11.52,12.31-18.7,17.45c-7.18,5.13-15.25,9.22-24.22,12.26s-18.66,4.36-29.06,3.98
	c-9.81-0.41-18.12-2.93-24.91-7.55c-5.72-3.8-10.46-9.76-14.21-17.87s-3.73-19.95,0.04-35.55c2.36-9.99,6.24-20.2,11.65-30.64
	c4.59-8.94,11.02-18.62,19.27-29.03c8.25-10.42,19.06-20.44,32.43-30.09c6.32-4.36,12.7-8.15,19.15-11.36
	c5.46-2.58,11.29-4.67,17.51-6.27c6.21-1.6,11.7-1.34,16.48,0.75c8.48,3.39,13.06,8.84,13.76,16.37c0.69,7.53-0.76,14.43-4.37,20.7
	c-1.98,3.3-4.58,7.27-7.8,11.92c-3.23,4.66-7.84,9.6-13.83,14.82c-6,5.23-13.88,10.54-23.64,15.94c-9.76,5.4-22,10.34-36.7,14.8
	c-4.98,9.54-8.48,18.14-10.5,25.79c-1.59,6.77-1.99,13.11-1.21,19.03c0.77,5.93,4.76,9.88,11.95,11.87
	c6.88,2.01,13.73,1.69,20.55-0.96c6.81-2.64,13.2-6.43,19.15-11.36c5.95-4.93,11.26-10.56,15.92-16.88s8.28-12.16,10.86-17.52
	c0.77-1.2,1.66-2.7,2.67-4.49c1-1.79,2.17-3.59,3.48-5.4s2.64-3.24,4-4.33C1313.04,379.91,1314.33,379.34,1315.53,379.28z
	 M1201.21,394.23c3.95-8.61,8.8-17.27,14.56-25.98c4.98-7.5,11.01-15.49,18.08-23.96s15.31-16.27,24.73-23.4
	c12.77-9.61,22.98-15.61,30.67-18.01c7.67-2.39,13.36-2.95,17.06-1.67c-1.04-1.11-2.22-2.22-3.55-3.32
	c-3.02-1.89-7.45-2.27-13.29-1.12c-3.7,0.76-9.24,3.34-16.61,7.76s-15.39,10.61-24.02,18.57c-8.64,7.97-17.19,17.89-25.66,29.77
	C1214.72,364.75,1207.39,378.53,1201.21,394.23z M1290.53,338.58c2.15-2.42,3.62-4.82,4.41-7.19c0.79-2.36,0.77-4.25-0.07-5.67
	c-0.84-1.41-2.61-2.06-5.32-1.93s-6.2,1.45-10.45,3.98c-4.26,2.53-8.56,5.85-12.9,9.98c-4.35,4.13-8.15,8.16-11.41,12.09
	c-3.27,3.94-5.94,7.33-7.99,10.19c-2.07,2.86-2.8,4.27-2.19,4.25c2.41-0.11,5.75-0.99,10.03-2.65c4.28-1.65,8.63-3.82,13.06-6.5
	c4.43-2.67,8.72-5.49,12.9-8.45C1284.77,343.73,1288.08,341.03,1290.53,338.58z"/>
<path class="st0" d="M1381.45,452.33l79.61-156.28h-30.7c-3.99,0-5.25-1.99-3.26-6.38l16.97-33.49c1.85-3.99,4.82-5.58,8.41-5.58
	h149.51c3.99,0,5.25,1.99,3.26,6.38l-16.97,33.49c-1.85,3.99-4.82,5.58-8.41,5.58h-73.36l-18.39,36.28h51.43
	c3.99,0,5.25,1.99,3.26,6.38l-16.97,33.49c-1.85,3.99-4.82,5.58-8.41,5.58h-52.23l-38.19,75.35c-1.85,3.99-4.82,5.58-8.41,5.58
	h-33.89C1380.72,458.71,1379.6,456.32,1381.45,452.33z"/>
<path class="st0" d="M1575.96,367.01c9.29-25.52,27.05-50.23,49.21-70.57h-19.14c-3.99,0-5.11-2.39-3.26-6.38l17.23-33.09
	c1.85-3.99,4.82-5.58,8.41-5.58h97.28c52.63,0,71.42,41.46,52.99,92.1c-21.04,57.81-89.27,116.02-149.87,116.02
	C1577.38,459.51,1557.96,416.45,1575.96,367.01z M1733.63,343.49c9.43-25.91,3.17-47.04-24.34-47.04
	c-36.28,0-75.94,36.68-88.28,70.57c-9,24.72-2.52,47.44,24.19,47.44C1680.69,414.45,1721.44,376.98,1733.63,343.49z"/>
<path class="st0" d="M1773.34,452.33l79.46-155.89h-30.7c-3.99,0-5.25-1.99-3.26-6.38l16.83-33.09c1.85-3.99,4.82-5.58,8.41-5.58
	h110.04c37.08,0,60.88,21.13,46.23,61.4c-10.01,27.51-38.95,61-81.25,70.97l7.23,67.78c0.4,4.39-2.61,7.18-7,7.18h-37.48
	c-3.19,0-5-1.59-5.18-4.39l-6.83-67.78h-17.14l-33.8,66.58c-1.85,3.99-4.82,5.58-8.41,5.58h-33.89
	C1772.62,458.71,1771.49,456.32,1773.34,452.33z M1955.3,312.79c5.08-13.95-6.01-16.35-17.57-16.35h-39.47l-22.78,45.05h34.29
	C1929.7,341.5,1947.46,334.32,1955.3,312.79z"/>
<path class="st0" d="M2053.94,452.33l79.61-156.28h-30.7c-3.99,0-5.25-1.99-3.26-6.38l16.97-33.49c1.85-3.99,4.82-5.58,8.41-5.58
	h70.57c3.99,0,5.25,1.99,3.26,6.38l-79.64,157.48h64.98c3.99,0,5.11,2.39,3.26,6.38l-16.54,32.29c-1.85,3.99-4.82,5.58-8.41,5.58
	H2057.2C2053.22,458.71,2052.09,456.32,2053.94,452.33z"/>
<path class="st0" d="M2211.02,452.33l79.21-156.28h-30.3c-3.99,0-5.25-1.99-3.26-6.38l16.97-33.49c1.85-3.99,4.82-5.58,8.41-5.58
	h70.57c3.99,0,5.11,2.39,3.26,6.38l-99.7,196.15c-1.85,3.99-4.82,5.58-8.41,5.58h-33.49
	C2210.3,458.71,2209.03,456.71,2211.02,452.33z"/>
<path class="st0" d="M2319.86,452.33l79.61-156.28h-30.7c-3.99,0-5.25-1.99-3.26-6.38l16.97-33.49c1.85-3.99,4.82-5.58,8.41-5.58
	h149.51c3.99,0,5.25,1.99,3.26,6.38l-16.97,33.49c-1.85,3.99-4.82,5.58-8.41,5.58h-73.36l-18.39,36.28h51.43
	c3.99,0,5.25,1.99,3.26,6.38l-16.97,33.49c-1.85,3.99-4.82,5.58-8.41,5.58h-52.23l-38.19,75.35c-1.85,3.99-4.82,5.58-8.41,5.58
	h-33.89C2319.13,458.71,2318.01,456.32,2319.86,452.33z"/>
<path class="st0" d="M2617.05,459.51c-39.87,0-78.94,0-118.12-0.8c-3.99,0-5.11-2.39-3.26-6.38l79.61-156.28h-30.7
	c-3.99,0-5.11-2.39-3.26-6.38l16.68-32.69c1.85-3.99,4.82-5.58,8.41-5.58h149.5c3.99,0,5.11,2.39,3.26,6.38l-16.68,32.69
	c-1.85,3.99-4.82,5.58-8.41,5.58h-73.36l-18.39,36.28h51.43c3.99,0,5.25,1.99,3.26,6.38l-16.97,33.49
	c-1.85,3.99-4.82,5.58-8.41,5.58h-52.23l-18.53,36.68h78.14c3.99,0,5.26,1.99,3.26,6.38l-16.83,33.09
	C2623.61,457.91,2620.64,459.51,2617.05,459.51z"/>
<g>
	<g>
		<g>
			<g>
				<path class="st1" d="M577.66,483.65c-1.8,53.08-56.38,43.24-49.67,15.99h-45.97c-2.84,20.91,5.17,40.48,19.98,54.33
					c24.66,23.06,70.1,16.53,99.07-15.37c22.23-24.48,28.16-56.31,20.12-81.65L577.66,483.65z"/>
				<g>
					<path class="st2" d="M373.48,115.12l69.3,24.91c-0.18,0.94,9.03-2.84,14.65-11.13c16.46-24.32-30.27-16.45-18.85-41.57
						c9.02-19.84,25.45-0.8,36.64-1.89c5.54-0.54,7.85-23.36-9.08-40.27c-21.44-21.41-59.18-25.55-83.64,4.5
						C359.73,77.64,373.48,115.12,373.48,115.12z"/>
					<path class="st2" d="M330.16,334.06c28.52,0,64.41,0,64.41,0c6.39,0,10.3,7.02,6.94,12.45l-50.72,77.11
						c-5.56,8.98-3.52,20.82,4.89,27.21c14.34,10.88,32.05,6.28,39.93-6.45c0,0,47.27-74.28,61.68-98.58
						c20.21-34.08,13.73-62.68-35.95-62.68c-17.63,0-26.54-0.12-44.17-0.16c-11.68-0.03-17.28-10.06-11.16-21.2
						c8.04-14.63,32.96-59.94,32.96-59.94c1.19-2.14,6.84-5.01,12.03-1.01l31.59,26.34c3,2.47,10.28,7.55,19.88,7.55l54.32-0.07
						c11.44,0.08,21.05-4.86,21.05-17.98c0-14.08-12.31-19.35-21.04-19.34c-17.96,0.02-44.22,0.06-44.22,0.06
						c-2.85,0-5.62-0.98-7.82-2.8c0,0-41.6-41.5-58.95-58.61c-14.9-14.7-42.38-13.73-57.05,11.28c0,0-43.01,78.07-58.83,106.27
						C265.15,297.7,286.62,334.06,330.16,334.06z"/>
				</g>
			</g>
			<path class="st1" d="M591.75,391.42c-9.38-1.42-18.46-0.04-14.32-6.53c19.54-30.66,109.31-182.66,32.76-182.66h-51.9
				c-6.67,0.01-12.07,4.15-12.07,12.08c0,5.46,5.33,10.15,11.64,10.15l13.26,0.02c42.89,0,24.95,31.76-16.24,88.82
				c-90.13,124.82-143.36,152.49-191.53,152.49c-98.27,0-47.67-60.08-23.4-94.61c10.94-15.56,6.93-27.16-16.75-27.16H82.77
				c-5.41,0-9.89,4.4-9.79,9.81c0.1,5.22,4.37,9.42,9.61,9.42h91.84c15.24,0,14.47,12.2-11.96,32.08c-5.17,3.89-10.2,8-15,12.34
				H97.83c-4.93,0-8.96,4.03-8.96,8.96v0.72c0,4.93,4.03,8.96,8.96,8.96h31.84c-10.97,13.48-19.7,28.94-24.88,46.93
				c-2.33,8.08,3.77,16.14,12.18,16.14h424.86c2.49,0,6.75-0.96,9.82-2.52c0.06-0.03,0.12-0.07,0.18-0.1l84.19-50.13
				c2.19-1.3,2.17-3.83,1.62-6.32C634.64,416.54,619.94,395.7,591.75,391.42z"/>
			<path class="st1" d="M294.65,122.23H128.73H103.4H25.8c-5.13,0-9.32,4.19-9.32,9.32l0,0c0,5.13,4.19,9.32,9.32,9.32h72.33
				l-6.99,43.33H41.79c-4.93,0-8.96,4.03-8.96,8.96v0.72c0,4.93,4.03,8.96,8.96,8.96h46.35l-6.99,43.33H57.68
				c-4.93,0-8.96,4.03-8.96,8.96v0.72c0,4.93,4.03,8.96,8.96,8.96h20.47l-10.77,66.84c-0.21,1.32,0.63,2.4,1.87,2.4H260.5
				c1.24,0,2.43-1.08,2.65-2.4l33.37-207.01C296.73,123.31,295.89,122.23,294.65,122.23z"/>
		</g>
		<path class="st1" d="M225.78,499.63c-16.89,38.23-52.76,20.38-47.13,0h-45.97c-2.21,20.2,3.83,39.72,18.36,52.91
			c26.64,24.19,71.72,17.94,100.69-13.96c10.65-11.73,17.62-25.29,20.88-38.95L225.78,499.63L225.78,499.63z"/>
	</g>
	<g>
		<path class="st3" d="M197.71,282.98c0,4.22-3.42,7.64-7.64,7.64h-17.64c-4.22,0-7.64-3.42-7.64-7.64V173.26
			c0-4.22,3.42-7.64,7.64-7.64h17.64c4.22,0,7.64,3.42,7.64,7.64V282.98z"/>
		<path class="st3" d="M126.39,244.59c-4.22,0-7.64-3.42-7.64-7.64v-17.64c0-4.22,3.42-7.64,7.64-7.64h109.72
			c4.22,0,7.64,3.42,7.64,7.64v17.64c0,4.22-3.42,7.64-7.64,7.64H126.39z"/>
	</g>
</g>
</svg>
